<svg width="25" height="20" viewBox="0 0 25 20" fill="none" xmlns="http://www.w3.org/2000/svg">
<path d="M4.6875 0.410292L8.78906 0.410291C9.11133 0.410291 9.375 0.685771 9.375 1.02247L9.375 3.06306C9.375 3.39976 9.11133 3.67524 8.78906 3.67524L4.6875 3.67524C3.82324 3.67524 3.125 4.40476 3.125 5.30772L3.125 15.1026C3.125 16.0055 3.82324 16.7351 4.6875 16.7351L8.78906 16.735C9.11133 16.735 9.375 17.0105 9.375 17.3472L9.375 19.3878C9.375 19.7245 9.11133 20 8.78906 20L4.6875 20C2.09961 20 1.71557e-06 17.8064 1.4792e-06 15.1026L6.22908e-07 5.30772C3.86536e-07 2.60393 2.09961 0.410292 4.6875 0.410292ZM6.98242 10.6643L15.1855 19.2348C15.918 20 17.1875 19.4643 17.1875 18.3675L17.1875 13.4701L23.8281 13.4701C24.4775 13.4701 25 12.9242 25 12.2457L25 7.34831C25 6.66981 24.4775 6.12395 23.8281 6.12395L17.1875 6.12396L17.1875 1.22653C17.1875 0.129708 15.918 -0.405948 15.1855 0.359277L6.98242 8.92977C6.52832 9.40931 6.52832 10.1847 6.98242 10.6643Z" fill="black"/>
</svg>
